<?xml version="1.0" encoding="UTF-8"?>
<svg xmlns="http://www.w3.org/2000/svg" xmlns:xlink="http://www.w3.org/1999/xlink" width="206pt" height="60pt" viewBox="20 10 200 60" version="1.1">
<g id="surface1">
<path style=" stroke:none;fill-rule:nonzero;fill:rgb(100%,100%,100%);fill-opacity:1;" d="M 76.695312 30.609375 C 76.089844 30.609375 76.066406 30.753906 75.945312 31.34375 L 75.703125 31.34375 C 75.734375 31.117188 75.773438 30.890625 75.800781 30.65625 C 75.832031 30.433594 75.847656 30.207031 75.847656 29.972656 L 76.042969 29.972656 C 76.105469 30.214844 76.308594 30.207031 76.523438 30.207031 L 80.683594 30.207031 C 80.898438 30.207031 81.101562 30.199219 81.117188 29.957031 L 81.3125 29.988281 C 81.28125 30.207031 81.246094 30.425781 81.222656 30.640625 C 81.207031 30.859375 81.207031 31.078125 81.207031 31.292969 L 80.964844 31.382812 C 80.949219 31.082031 80.910156 30.609375 80.367188 30.609375 L 79.046875 30.609375 L 79.046875 34.894531 C 79.046875 35.515625 79.328125 35.589844 79.714844 35.589844 L 79.871094 35.589844 L 79.871094 35.832031 C 79.554688 35.832031 78.992188 35.796875 78.554688 35.796875 C 78.074219 35.796875 77.507812 35.832031 77.195312 35.832031 L 77.195312 35.589844 L 77.347656 35.589844 C 77.789062 35.589844 78.015625 35.546875 78.015625 34.910156 L 78.015625 30.609375 Z M 76.695312 30.609375 "/>
<path style=" stroke:none;fill-rule:nonzero;fill:rgb(100%,100%,100%);fill-opacity:1;" d="M 83.101562 35.207031 C 83.101562 35.59375 83.398438 35.617188 83.660156 35.617188 L 83.796875 35.617188 L 83.796875 35.832031 C 83.480469 35.832031 83.023438 35.804688 82.632812 35.804688 C 82.269531 35.804688 81.839844 35.832031 81.554688 35.832031 L 81.554688 35.617188 L 81.652344 35.617188 C 81.910156 35.617188 82.183594 35.582031 82.183594 35.207031 L 82.183594 31.457031 C 82.183594 31.082031 81.910156 31.046875 81.652344 31.046875 L 81.554688 31.046875 L 81.554688 30.832031 C 81.839844 30.832031 82.269531 30.859375 82.632812 30.859375 C 83.023438 30.859375 83.480469 30.832031 83.796875 30.832031 L 83.796875 31.046875 L 83.660156 31.046875 C 83.402344 31.046875 83.101562 31.070312 83.101562 31.457031 L 83.101562 33.023438 L 85.699219 33.023438 L 85.699219 31.457031 C 85.699219 31.070312 85.398438 31.046875 85.140625 31.046875 L 85.003906 31.046875 L 85.003906 30.832031 C 85.320312 30.832031 85.777344 30.859375 86.164062 30.859375 C 86.53125 30.859375 86.960938 30.832031 87.246094 30.832031 L 87.246094 31.046875 L 87.148438 31.046875 C 86.890625 31.046875 86.617188 31.082031 86.617188 31.457031 L 86.617188 35.207031 C 86.617188 35.582031 86.886719 35.617188 87.148438 35.617188 L 87.246094 35.617188 L 87.246094 35.832031 C 86.960938 35.832031 86.53125 35.804688 86.164062 35.804688 C 85.777344 35.804688 85.320312 35.832031 85.003906 35.832031 L 85.003906 35.617188 L 85.140625 35.617188 C 85.398438 35.617188 85.699219 35.59375 85.699219 35.207031 L 85.699219 33.425781 L 83.101562 33.425781 Z M 83.101562 35.207031 "/>
<path style=" stroke:none;fill-rule:nonzero;fill:rgb(100%,100%,100%);fill-opacity:1;" d="M 87.878906 35.617188 L 87.976562 35.617188 C 88.234375 35.617188 88.507812 35.582031 88.507812 35.207031 L 88.507812 31.457031 C 88.507812 31.082031 88.238281 31.046875 87.976562 31.046875 L 87.878906 31.046875 L 87.878906 30.832031 C 88.316406 30.832031 89.058594 30.859375 89.660156 30.859375 C 90.265625 30.859375 91.007812 30.832031 91.496094 30.832031 C 91.480469 31.140625 91.488281 31.613281 91.511719 31.929688 L 91.296875 31.984375 C 91.257812 31.519531 91.171875 31.148438 90.421875 31.148438 L 89.425781 31.148438 L 89.425781 33.023438 L 90.277344 33.023438 C 90.707031 33.023438 90.800781 32.78125 90.84375 32.394531 L 91.058594 32.394531 C 91.042969 32.671875 91.035156 32.953125 91.035156 33.230469 C 91.035156 33.503906 91.042969 33.777344 91.058594 34.046875 L 90.84375 34.09375 C 90.800781 33.660156 90.777344 33.382812 90.285156 33.382812 L 89.425781 33.382812 L 89.425781 35.050781 C 89.425781 35.515625 89.839844 35.515625 90.300781 35.515625 C 91.160156 35.515625 91.539062 35.460938 91.753906 34.644531 L 91.953125 34.695312 C 91.859375 35.074219 91.773438 35.453125 91.710938 35.832031 C 91.25 35.832031 90.425781 35.804688 89.78125 35.804688 C 89.136719 35.804688 88.285156 35.832031 87.878906 35.832031 Z M 87.878906 35.617188 "/>
<path style=" stroke:none;fill-rule:nonzero;fill:rgb(100%,100%,100%);fill-opacity:1;" d="M 100.054688 31.867188 C 99.828125 31.085938 99.457031 30.441406 98.25 30.441406 C 96.929688 30.441406 96.234375 31.480469 96.234375 32.890625 C 96.234375 34.238281 96.921875 35.597656 98.441406 35.597656 C 99.304688 35.597656 99.878906 35.058594 100.085938 34.253906 L 100.3125 34.285156 C 100.207031 34.71875 100.152344 35.15625 100.109375 35.589844 C 99.644531 35.792969 99.007812 35.953125 98.265625 35.953125 C 96.453125 35.953125 95.105469 34.960938 95.105469 32.9375 C 95.105469 31.132812 96.566406 30.085938 98.226562 30.085938 C 99.167969 30.085938 99.472656 30.375 100.230469 30.488281 C 100.222656 30.933594 100.238281 31.382812 100.296875 31.835938 Z M 100.054688 31.867188 "/>
<path style=" stroke:none;fill-rule:nonzero;fill:rgb(100%,100%,100%);fill-opacity:1;" d="M 102.71875 35.128906 C 102.71875 35.417969 102.917969 35.5 103.148438 35.53125 C 103.441406 35.550781 103.761719 35.550781 104.09375 35.515625 C 104.394531 35.480469 104.652344 35.308594 104.78125 35.128906 C 104.894531 34.972656 104.960938 34.769531 105.003906 34.613281 L 105.210938 34.613281 C 105.132812 35.023438 105.03125 35.421875 104.945312 35.832031 C 104.316406 35.832031 103.683594 35.804688 103.054688 35.804688 C 102.425781 35.804688 101.792969 35.832031 101.164062 35.832031 L 101.164062 35.617188 L 101.261719 35.617188 C 101.519531 35.617188 101.800781 35.582031 101.800781 35.136719 L 101.800781 31.457031 C 101.800781 31.082031 101.519531 31.046875 101.261719 31.046875 L 101.164062 31.046875 L 101.164062 30.832031 C 101.542969 30.832031 101.914062 30.859375 102.296875 30.859375 C 102.660156 30.859375 103.019531 30.832031 103.382812 30.832031 L 103.382812 31.046875 L 103.203125 31.046875 C 102.933594 31.046875 102.71875 31.054688 102.71875 31.433594 Z M 102.71875 35.128906 "/>
<path style=" stroke:none;fill-rule:nonzero;fill:rgb(100%,100%,100%);fill-opacity:1;" d="M 106.777344 34.808594 C 106.707031 35.050781 106.621094 35.238281 106.621094 35.367188 C 106.621094 35.582031 106.921875 35.617188 107.15625 35.617188 L 107.234375 35.617188 L 107.234375 35.832031 C 106.949219 35.816406 106.65625 35.804688 106.371094 35.804688 C 106.113281 35.804688 105.855469 35.816406 105.597656 35.832031 L 105.597656 35.617188 L 105.640625 35.617188 C 105.917969 35.617188 106.15625 35.453125 106.261719 35.152344 L 107.410156 31.863281 C 107.5 31.597656 107.628906 31.242188 107.671875 30.976562 C 107.902344 30.894531 108.1875 30.753906 108.324219 30.667969 C 108.347656 30.660156 108.359375 30.652344 108.382812 30.652344 C 108.40625 30.652344 108.417969 30.652344 108.433594 30.675781 C 108.453125 30.730469 108.476562 30.796875 108.496094 30.855469 L 109.816406 34.601562 C 109.902344 34.851562 109.988281 35.117188 110.082031 35.332031 C 110.167969 35.53125 110.316406 35.617188 110.554688 35.617188 L 110.597656 35.617188 L 110.597656 35.832031 C 110.273438 35.820312 109.953125 35.804688 109.609375 35.804688 C 109.257812 35.804688 108.898438 35.820312 108.535156 35.832031 L 108.535156 35.617188 L 108.613281 35.617188 C 108.777344 35.617188 109.058594 35.589844 109.058594 35.410156 C 109.058594 35.316406 108.992188 35.125 108.914062 34.894531 L 108.632812 34.0625 L 107.007812 34.0625 Z M 107.824219 31.632812 L 107.808594 31.632812 L 107.140625 33.660156 L 108.480469 33.660156 Z M 107.824219 31.632812 "/>
<path style=" stroke:none;fill-rule:nonzero;fill:rgb(100%,100%,100%);fill-opacity:1;" d="M 111.839844 31.589844 C 111.839844 31.070312 111.554688 31.046875 111.332031 31.046875 L 111.203125 31.046875 L 111.203125 30.832031 C 111.433594 30.832031 111.878906 30.859375 112.3125 30.859375 C 112.742188 30.859375 113.085938 30.832031 113.46875 30.832031 C 114.371094 30.832031 115.171875 31.074219 115.171875 32.09375 C 115.171875 32.738281 114.742188 33.132812 114.175781 33.355469 L 115.402344 35.1875 C 115.601562 35.488281 115.746094 35.574219 116.097656 35.617188 L 116.097656 35.832031 C 115.859375 35.832031 115.628906 35.804688 115.394531 35.804688 C 115.171875 35.804688 114.941406 35.832031 114.722656 35.832031 C 114.167969 35.109375 113.695312 34.335938 113.230469 33.511719 L 112.757812 33.511719 L 112.757812 35.042969 C 112.757812 35.59375 113.015625 35.617188 113.34375 35.617188 L 113.472656 35.617188 L 113.472656 35.832031 C 113.066406 35.832031 112.648438 35.804688 112.242188 35.804688 C 111.898438 35.804688 111.5625 35.832031 111.203125 35.832031 L 111.203125 35.617188 L 111.332031 35.617188 C 111.597656 35.617188 111.839844 35.496094 111.839844 35.230469 Z M 112.757812 33.253906 L 113.109375 33.253906 C 113.824219 33.253906 114.210938 32.980469 114.210938 32.136719 C 114.210938 31.496094 113.804688 31.089844 113.167969 31.089844 C 112.953125 31.089844 112.859375 31.113281 112.757812 31.117188 Z M 112.757812 33.253906 "/>
<path style=" stroke:none;fill-rule:nonzero;fill:rgb(100%,100%,100%);fill-opacity:1;" d="M 116.707031 35.617188 L 116.804688 35.617188 C 117.0625 35.617188 117.335938 35.582031 117.335938 35.207031 L 117.335938 31.457031 C 117.335938 31.082031 117.0625 31.046875 116.804688 31.046875 L 116.707031 31.046875 L 116.707031 30.832031 C 117.140625 30.832031 117.886719 30.859375 118.488281 30.859375 C 119.089844 30.859375 119.835938 30.832031 120.324219 30.832031 C 120.308594 31.140625 120.316406 31.613281 120.335938 31.929688 L 120.121094 31.984375 C 120.085938 31.519531 120 31.148438 119.25 31.148438 L 118.253906 31.148438 L 118.253906 33.023438 L 119.105469 33.023438 C 119.535156 33.023438 119.628906 32.78125 119.671875 32.394531 L 119.886719 32.394531 C 119.871094 32.671875 119.863281 32.953125 119.863281 33.230469 C 119.863281 33.503906 119.871094 33.777344 119.886719 34.046875 L 119.671875 34.09375 C 119.628906 33.660156 119.605469 33.382812 119.113281 33.382812 L 118.253906 33.382812 L 118.253906 35.050781 C 118.253906 35.515625 118.667969 35.515625 119.125 35.515625 C 119.988281 35.515625 120.367188 35.460938 120.582031 34.644531 L 120.78125 34.695312 C 120.6875 35.074219 120.601562 35.453125 120.539062 35.832031 C 120.078125 35.832031 119.253906 35.804688 118.609375 35.804688 C 117.964844 35.804688 117.113281 35.832031 116.707031 35.832031 Z M 116.707031 35.617188 "/>
<path style=" stroke:none;fill-rule:nonzero;fill:rgb(100%,100%,100%);fill-opacity:1;" d="M 125.027344 34.578125 L 126.726562 30.832031 C 126.941406 30.832031 127.199219 30.859375 127.457031 30.859375 C 127.707031 30.859375 127.964844 30.832031 128.214844 30.832031 L 128.214844 31.046875 L 128.152344 31.046875 C 127.9375 31.046875 127.5 31.058594 127.484375 31.375 C 127.476562 31.5625 127.507812 31.777344 127.519531 31.933594 L 127.792969 35.214844 C 127.820312 35.574219 128 35.601562 128.429688 35.617188 L 128.429688 35.832031 C 128.09375 35.816406 127.742188 35.800781 127.398438 35.800781 C 127.003906 35.800781 126.613281 35.816406 126.21875 35.832031 L 126.21875 35.617188 C 126.589844 35.59375 126.835938 35.59375 126.835938 35.277344 C 126.835938 35.195312 126.835938 35.113281 126.828125 34.929688 L 126.625 31.90625 L 126.613281 31.90625 L 124.785156 35.9375 L 124.613281 35.9375 L 122.878906 31.984375 L 122.867188 31.984375 L 122.621094 35.128906 C 122.621094 35.359375 122.679688 35.472656 122.773438 35.535156 C 122.878906 35.601562 123.03125 35.609375 123.230469 35.617188 L 123.316406 35.617188 L 123.316406 35.832031 C 122.996094 35.816406 122.664062 35.800781 122.34375 35.800781 C 122.0625 35.800781 121.777344 35.816406 121.5 35.832031 L 121.5 35.617188 L 121.597656 35.617188 C 122.164062 35.59375 122.183594 35.351562 122.25 34.835938 L 122.464844 32.84375 C 122.523438 32.335938 122.550781 31.871094 122.550781 31.582031 C 122.550781 31.183594 122.242188 31.046875 121.925781 31.046875 L 121.835938 31.046875 L 121.835938 30.832031 C 122.128906 30.832031 122.414062 30.859375 122.707031 30.859375 C 122.921875 30.859375 123.136719 30.832031 123.351562 30.832031 Z M 125.027344 34.578125 "/>
<path style=" stroke:none;fill-rule:nonzero;fill:rgb(100%,100%,100%);fill-opacity:1;" d="M 131.734375 30.726562 C 133.261719 30.726562 134.476562 31.671875 134.476562 33.195312 C 134.476562 34.84375 133.296875 35.9375 131.769531 35.9375 C 130.253906 35.9375 129.09375 34.90625 129.09375 33.367188 C 129.089844 31.878906 130.242188 30.726562 131.734375 30.726562 Z M 131.839844 35.625 C 133.230469 35.625 133.476562 34.398438 133.476562 33.355469 C 133.476562 32.308594 132.910156 31.039062 131.71875 31.039062 C 130.464844 31.039062 130.09375 32.15625 130.09375 33.117188 C 130.09375 34.398438 130.679688 35.625 131.839844 35.625 Z M 131.839844 35.625 "/>
<path style=" stroke:none;fill-rule:nonzero;fill:rgb(100%,100%,100%);fill-opacity:1;" d="M 139.828125 34.421875 L 139.84375 34.40625 L 139.84375 31.71875 C 139.84375 31.132812 139.433594 31.046875 139.21875 31.046875 L 139.0625 31.046875 L 139.0625 30.832031 C 139.398438 30.832031 139.730469 30.859375 140.066406 30.859375 C 140.359375 30.859375 140.652344 30.832031 140.945312 30.832031 L 140.945312 31.046875 L 140.839844 31.046875 C 140.539062 31.046875 140.203125 31.105469 140.203125 31.957031 L 140.203125 35.214844 C 140.203125 35.464844 140.210938 35.71875 140.246094 35.9375 L 139.972656 35.9375 L 136.285156 31.828125 L 136.285156 34.777344 C 136.285156 35.402344 136.40625 35.617188 136.957031 35.617188 L 137.078125 35.617188 L 137.078125 35.832031 C 136.773438 35.832031 136.464844 35.804688 136.15625 35.804688 C 135.832031 35.804688 135.503906 35.832031 135.183594 35.832031 L 135.183594 35.617188 L 135.28125 35.617188 C 135.777344 35.617188 135.925781 35.28125 135.925781 34.707031 L 135.925781 31.691406 C 135.925781 31.289062 135.597656 31.046875 135.273438 31.046875 L 135.183594 31.046875 L 135.183594 30.832031 C 135.453125 30.832031 135.734375 30.859375 136.003906 30.859375 C 136.21875 30.859375 136.429688 30.832031 136.644531 30.832031 Z M 139.828125 34.421875 "/>
<path style=" stroke:none;fill-rule:nonzero;fill:rgb(100%,100%,100%);fill-opacity:1;" d="M 142.378906 31.191406 C 141.839844 31.191406 141.820312 31.320312 141.710938 31.84375 L 141.5 31.84375 C 141.527344 31.640625 141.5625 31.441406 141.582031 31.234375 C 141.613281 31.03125 141.628906 30.832031 141.628906 30.625 L 141.800781 30.625 C 141.855469 30.839844 142.035156 30.832031 142.230469 30.832031 L 145.925781 30.832031 C 146.117188 30.832031 146.296875 30.824219 146.3125 30.609375 L 146.484375 30.636719 C 146.457031 30.832031 146.425781 31.023438 146.40625 31.21875 C 146.390625 31.414062 146.390625 31.605469 146.390625 31.800781 L 146.175781 31.878906 C 146.160156 31.613281 146.125 31.191406 145.644531 31.191406 L 144.472656 31.191406 L 144.472656 35 C 144.472656 35.550781 144.722656 35.617188 145.066406 35.617188 L 145.203125 35.617188 L 145.203125 35.832031 C 144.921875 35.832031 144.421875 35.804688 144.035156 35.804688 C 143.605469 35.804688 143.101562 35.832031 142.824219 35.832031 L 142.824219 35.617188 L 142.960938 35.617188 C 143.355469 35.617188 143.554688 35.582031 143.554688 35.015625 L 143.554688 31.191406 Z M 142.378906 31.191406 "/>
<path style=" stroke:none;fill-rule:nonzero;fill:rgb(100%,100%,100%);fill-opacity:1;" d="M 154.5625 31.867188 C 154.335938 31.085938 153.96875 30.441406 152.757812 30.441406 C 151.4375 30.441406 150.742188 31.480469 150.742188 32.890625 C 150.742188 34.238281 151.429688 35.597656 152.953125 35.597656 C 153.8125 35.597656 154.386719 35.058594 154.597656 34.253906 L 154.820312 34.285156 C 154.71875 34.71875 154.660156 35.15625 154.621094 35.589844 C 154.152344 35.792969 153.515625 35.953125 152.773438 35.953125 C 150.960938 35.953125 149.617188 34.960938 149.617188 32.9375 C 149.617188 31.132812 151.074219 30.085938 152.734375 30.085938 C 153.675781 30.085938 153.984375 30.375 154.742188 30.488281 C 154.734375 30.933594 154.75 31.382812 154.804688 31.835938 Z M 154.5625 31.867188 "/>
<path style=" stroke:none;fill-rule:nonzero;fill:rgb(100%,100%,100%);fill-opacity:1;" d="M 158.492188 30.726562 C 160.019531 30.726562 161.234375 31.671875 161.234375 33.195312 C 161.234375 34.84375 160.054688 35.9375 158.527344 35.9375 C 157.011719 35.9375 155.847656 34.90625 155.847656 33.367188 C 155.847656 31.878906 157 30.726562 158.492188 30.726562 Z M 158.597656 35.625 C 159.988281 35.625 160.234375 34.398438 160.234375 33.355469 C 160.234375 32.308594 159.667969 31.039062 158.476562 31.039062 C 157.222656 31.039062 156.851562 32.15625 156.851562 33.117188 C 156.851562 34.398438 157.4375 35.625 158.597656 35.625 Z M 158.597656 35.625 "/>
<path style=" stroke:none;fill-rule:nonzero;fill:rgb(100%,100%,100%);fill-opacity:1;" d="M 163.605469 35.128906 C 163.605469 35.417969 163.808594 35.5 164.035156 35.53125 C 164.328125 35.550781 164.652344 35.550781 164.980469 35.515625 C 165.28125 35.480469 165.539062 35.308594 165.667969 35.128906 C 165.785156 34.972656 165.847656 34.769531 165.890625 34.613281 L 166.097656 34.613281 C 166.019531 35.023438 165.921875 35.421875 165.835938 35.832031 C 165.203125 35.832031 164.574219 35.804688 163.941406 35.804688 C 163.3125 35.804688 162.683594 35.832031 162.050781 35.832031 L 162.050781 35.617188 L 162.152344 35.617188 C 162.410156 35.617188 162.691406 35.582031 162.691406 35.136719 L 162.691406 31.457031 C 162.691406 31.082031 162.410156 31.046875 162.152344 31.046875 L 162.050781 31.046875 L 162.050781 30.832031 C 162.433594 30.832031 162.804688 30.859375 163.183594 30.859375 C 163.550781 30.859375 163.90625 30.832031 164.273438 30.832031 L 164.273438 31.046875 L 164.09375 31.046875 C 163.820312 31.046875 163.605469 31.054688 163.605469 31.433594 Z M 163.605469 35.128906 "/>
<path style=" stroke:none;fill-rule:nonzero;fill:rgb(100%,100%,100%);fill-opacity:1;" d="M 168.339844 35.128906 C 168.339844 35.417969 168.542969 35.5 168.773438 35.53125 C 169.066406 35.550781 169.386719 35.550781 169.71875 35.515625 C 170.019531 35.480469 170.277344 35.308594 170.40625 35.128906 C 170.519531 34.972656 170.582031 34.769531 170.625 34.613281 L 170.835938 34.613281 C 170.753906 35.023438 170.65625 35.421875 170.570312 35.832031 C 169.9375 35.832031 169.308594 35.804688 168.679688 35.804688 C 168.046875 35.804688 167.417969 35.832031 166.789062 35.832031 L 166.789062 35.617188 L 166.886719 35.617188 C 167.144531 35.617188 167.425781 35.582031 167.425781 35.136719 L 167.425781 31.457031 C 167.425781 31.082031 167.144531 31.046875 166.886719 31.046875 L 166.789062 31.046875 L 166.789062 30.832031 C 167.167969 30.832031 167.539062 30.859375 167.917969 30.859375 C 168.285156 30.859375 168.644531 30.832031 169.007812 30.832031 L 169.007812 31.046875 L 168.828125 31.046875 C 168.554688 31.046875 168.339844 31.054688 168.339844 31.433594 Z M 168.339844 35.128906 "/>
<path style=" stroke:none;fill-rule:nonzero;fill:rgb(100%,100%,100%);fill-opacity:1;" d="M 171.492188 35.617188 L 171.59375 35.617188 C 171.851562 35.617188 172.125 35.582031 172.125 35.207031 L 172.125 31.457031 C 172.125 31.082031 171.851562 31.046875 171.59375 31.046875 L 171.492188 31.046875 L 171.492188 30.832031 C 171.929688 30.832031 172.675781 30.859375 173.277344 30.859375 C 173.878906 30.859375 174.625 30.832031 175.109375 30.832031 C 175.097656 31.140625 175.105469 31.613281 175.125 31.929688 L 174.910156 31.984375 C 174.875 31.519531 174.789062 31.148438 174.035156 31.148438 L 173.042969 31.148438 L 173.042969 33.023438 L 173.894531 33.023438 C 174.324219 33.023438 174.417969 32.78125 174.460938 32.394531 L 174.671875 32.394531 C 174.660156 32.671875 174.652344 32.953125 174.652344 33.230469 C 174.652344 33.503906 174.660156 33.777344 174.671875 34.046875 L 174.460938 34.09375 C 174.414062 33.660156 174.394531 33.382812 173.898438 33.382812 L 173.039062 33.382812 L 173.039062 35.050781 C 173.039062 35.515625 173.457031 35.515625 173.914062 35.515625 C 174.773438 35.515625 175.152344 35.460938 175.367188 34.644531 L 175.570312 34.695312 C 175.476562 35.074219 175.390625 35.453125 175.324219 35.832031 C 174.867188 35.832031 174.042969 35.804688 173.398438 35.804688 C 172.753906 35.804688 171.902344 35.832031 171.492188 35.832031 Z M 171.492188 35.617188 "/>
<path style=" stroke:none;fill-rule:nonzero;fill:rgb(100%,100%,100%);fill-opacity:1;" d="M 180.742188 32.230469 C 180.527344 31.347656 179.917969 31.039062 179.078125 31.039062 C 177.796875 31.039062 177.167969 31.984375 177.167969 33.179688 C 177.167969 34.363281 177.730469 35.625 179.101562 35.625 C 179.445312 35.628906 179.800781 35.574219 179.894531 35.488281 L 179.894531 34.320312 C 179.894531 34.027344 179.617188 33.953125 179.351562 33.953125 L 179.257812 33.953125 L 179.257812 33.738281 C 179.617188 33.753906 179.972656 33.769531 180.332031 33.769531 C 180.65625 33.769531 180.96875 33.753906 181.292969 33.738281 L 181.292969 33.953125 L 181.199219 33.953125 C 180.949219 33.953125 180.8125 34.070312 180.8125 34.320312 L 180.8125 35.40625 L 180.976562 35.5 L 180.976562 35.628906 C 180.339844 35.808594 179.714844 35.9375 178.976562 35.9375 C 177.375 35.9375 176.164062 34.976562 176.164062 33.25 C 176.164062 31.589844 177.582031 30.722656 179.027344 30.722656 C 179.472656 30.722656 179.78125 30.789062 180.058594 30.851562 C 180.339844 30.917969 180.582031 30.980469 180.867188 30.988281 C 180.867188 31.253906 180.867188 31.796875 180.953125 32.214844 Z M 180.742188 32.230469 "/>
<path style=" stroke:none;fill-rule:nonzero;fill:rgb(100%,100%,100%);fill-opacity:1;" d="M 181.9375 35.617188 L 182.039062 35.617188 C 182.296875 35.617188 182.566406 35.582031 182.566406 35.207031 L 182.566406 31.457031 C 182.566406 31.082031 182.296875 31.046875 182.039062 31.046875 L 181.9375 31.046875 L 181.9375 30.832031 C 182.375 30.832031 183.121094 30.859375 183.722656 30.859375 C 184.324219 30.859375 185.066406 30.832031 185.554688 30.832031 C 185.542969 31.140625 185.546875 31.613281 185.570312 31.929688 L 185.355469 31.984375 C 185.320312 31.519531 185.234375 31.148438 184.480469 31.148438 L 183.484375 31.148438 L 183.484375 33.023438 L 184.335938 33.023438 C 184.769531 33.023438 184.859375 32.78125 184.902344 32.394531 L 185.117188 32.394531 C 185.105469 32.671875 185.097656 32.953125 185.097656 33.230469 C 185.097656 33.503906 185.105469 33.777344 185.117188 34.046875 L 184.902344 34.09375 C 184.859375 33.660156 184.839844 33.382812 184.34375 33.382812 L 183.484375 33.382812 L 183.484375 35.050781 C 183.484375 35.515625 183.898438 35.515625 184.359375 35.515625 C 185.21875 35.515625 185.597656 35.460938 185.8125 34.644531 L 186.011719 34.695312 C 185.917969 35.074219 185.832031 35.453125 185.769531 35.832031 C 185.3125 35.832031 184.488281 35.804688 183.84375 35.804688 C 183.199219 35.804688 182.34375 35.832031 181.9375 35.832031 Z M 181.9375 35.617188 "/>
<path style=" stroke:none;fill-rule:nonzero;fill:rgb(100%,100%,100%);fill-opacity:1;" d="M 189.292969 31.890625 C 189.246094 31.425781 188.945312 30.980469 188.449219 30.980469 C 187.882812 30.980469 187.570312 31.320312 187.570312 31.882812 C 187.570312 33.074219 189.71875 32.714844 189.71875 34.433594 C 189.71875 35.421875 188.902344 35.9375 187.984375 35.9375 C 187.582031 35.9375 187.195312 35.796875 186.847656 35.617188 C 186.808594 35.25 186.761719 34.890625 186.722656 34.527344 L 186.925781 34.484375 C 187.011719 35.09375 187.355469 35.621094 188.035156 35.621094 C 188.519531 35.621094 188.914062 35.316406 188.914062 34.804688 C 188.914062 33.539062 186.808594 33.933594 186.808594 32.207031 C 186.808594 31.273438 187.46875 30.722656 188.390625 30.722656 C 188.59375 30.722656 189.203125 30.800781 189.421875 30.832031 C 189.421875 31.167969 189.453125 31.511719 189.496094 31.855469 Z M 189.292969 31.890625 "/>
<path style=" stroke:none;fill-rule:nonzero;fill:rgb(100%,100%,100%);fill-opacity:1;" d="M 72.925781 40.167969 L 190.089844 40.167969 L 190.089844 40.441406 L 72.925781 40.441406 Z M 72.925781 40.167969 "/>
<path style=" stroke:none;fill-rule:nonzero;fill:rgb(100%,100%,100%);fill-opacity:1;" d="M 78.691406 40.289062 C 78.648438 40.285156 76.671875 40.230469 75.746094 40.195312 C 75.472656 40.183594 75.203125 40.164062 74.929688 40.144531 C 74.523438 40.109375 74.117188 40.074219 73.714844 40.027344 C 73.347656 39.992188 72.984375 39.960938 72.621094 39.902344 C 72.078125 39.8125 71.535156 39.710938 70.996094 39.597656 C 70.210938 39.4375 69.445312 39.214844 68.710938 38.886719 C 67.496094 38.34375 66.496094 37.542969 65.78125 36.40625 C 65.269531 35.59375 64.9375 34.703125 64.699219 33.78125 C 64.597656 33.398438 64.488281 33.023438 64.421875 32.640625 C 64.398438 32.492188 64.375 32.347656 64.355469 32.199219 C 64.441406 32.1875 64.535156 32.175781 64.621094 32.164062 C 65.191406 32.089844 65.765625 32.042969 66.339844 31.992188 C 66.886719 31.945312 67.4375 31.90625 67.984375 31.878906 C 68.511719 31.851562 69.039062 31.839844 69.5625 31.828125 C 69.902344 31.820312 70.25 31.804688 70.585938 31.804688 C 71.679688 31.792969 71.691406 31.792969 70.601562 31.769531 C 70.554688 31.761719 68.582031 31.707031 67.65625 31.667969 C 67.382812 31.660156 67.109375 31.640625 66.839844 31.617188 C 66.433594 31.585938 66.027344 31.546875 65.625 31.503906 C 65.257812 31.464844 64.890625 31.4375 64.53125 31.378906 C 64.445312 31.363281 64.359375 31.351562 64.273438 31.332031 C 64.199219 30.394531 63.808594 22.691406 63.796875 21.933594 C 63.789062 21.574219 63.792969 21.214844 63.792969 20.859375 C 63.78125 20.734375 63.78125 20.734375 63.773438 20.859375 C 63.753906 21.992188 63.46875 29.417969 63.375 31.167969 C 63.21875 31.140625 63.058594 31.105469 62.902344 31.074219 C 62.121094 30.914062 61.351562 30.691406 60.617188 30.363281 C 59.402344 29.820312 58.402344 29.023438 57.691406 27.886719 C 57.175781 27.070312 56.847656 26.179688 56.605469 25.257812 C 56.507812 24.875 56.394531 24.5 56.328125 24.117188 C 56.253906 23.699219 56.21875 23.277344 56.183594 22.859375 C 56.121094 22.199219 55.714844 14.183594 55.703125 13.410156 C 55.695312 13.050781 55.699219 12.691406 55.699219 12.332031 C 55.691406 12.207031 55.691406 12.210938 55.679688 12.332031 C 55.660156 13.582031 55.3125 22.488281 55.261719 22.988281 C 55.214844 23.429688 55.167969 23.875 55.089844 24.3125 C 54.921875 25.226562 54.671875 26.113281 54.289062 26.964844 C 53.675781 28.328125 52.734375 29.375 51.417969 30.089844 C 50.34375 30.671875 49.183594 31 48 31.238281 C 47.90625 29.882812 47.546875 22.664062 47.535156 21.933594 C 47.53125 21.574219 47.53125 21.214844 47.53125 20.859375 C 47.523438 20.734375 47.523438 20.734375 47.511719 20.859375 C 47.496094 22.011719 47.199219 29.664062 47.113281 31.25 C 46.816406 31.191406 46.519531 31.136719 46.226562 31.074219 C 45.4375 30.914062 44.671875 30.691406 43.9375 30.363281 C 42.722656 29.820312 41.722656 29.023438 41.011719 27.886719 C 40.5 27.070312 40.164062 26.179688 39.925781 25.257812 C 39.828125 24.875 39.71875 24.5 39.648438 24.117188 C 39.578125 23.699219 39.542969 23.277344 39.503906 22.859375 C 39.441406 22.199219 39.039062 14.183594 39.023438 13.410156 C 39.015625 13.050781 39.023438 12.691406 39.023438 12.332031 C 39.011719 12.207031 39.011719 12.210938 39 12.332031 C 38.980469 13.582031 38.632812 22.488281 38.582031 22.988281 C 38.535156 23.429688 38.488281 23.875 38.414062 24.3125 C 38.246094 25.226562 37.992188 26.113281 37.609375 26.964844 C 36.996094 28.328125 36.058594 29.375 34.738281 30.089844 C 33.652344 30.679688 32.476562 30.976562 31.277344 31.214844 C 31.183594 29.882812 30.820312 22.667969 30.808594 21.933594 C 30.800781 21.574219 30.804688 21.214844 30.804688 20.859375 C 30.796875 20.734375 30.796875 20.734375 30.785156 20.859375 C 30.765625 22.039062 30.457031 30.054688 30.375 31.355469 C 30.175781 31.386719 29.980469 31.410156 29.78125 31.433594 C 29.355469 31.492188 28.925781 31.535156 28.5 31.574219 C 28.117188 31.605469 27.734375 31.628906 27.351562 31.648438 C 26.695312 31.683594 26.039062 31.714844 25.382812 31.742188 C 25.046875 31.753906 24.621094 31.765625 24.242188 31.773438 C 24.085938 31.78125 24.089844 31.785156 24.242188 31.789062 C 24.609375 31.800781 24.964844 31.820312 25.328125 31.828125 C 25.671875 31.832031 26.011719 31.839844 26.347656 31.855469 C 26.964844 31.890625 27.574219 31.925781 28.1875 31.972656 C 28.59375 32 29 32.019531 29.402344 32.070312 C 29.699219 32.109375 29.996094 32.144531 30.296875 32.1875 C 30.269531 32.40625 30.238281 32.621094 30.195312 32.839844 C 30.027344 33.75 29.777344 34.640625 29.394531 35.492188 C 28.785156 36.851562 27.839844 37.902344 26.523438 38.617188 C 25.433594 39.207031 24.246094 39.507812 23.042969 39.742188 C 22.554688 39.835938 22.058594 39.894531 21.570312 39.960938 C 21.140625 40.019531 20.710938 40.0625 20.285156 40.097656 C 19.902344 40.132812 19.519531 40.15625 19.136719 40.175781 C 18.480469 40.210938 17.824219 40.242188 17.167969 40.269531 C 16.832031 40.28125 16.40625 40.292969 16.023438 40.296875 C 15.871094 40.308594 15.875 40.308594 16.027344 40.3125 C 16.394531 40.328125 16.75 40.347656 17.113281 40.355469 C 17.453125 40.355469 17.796875 40.363281 18.136719 40.382812 C 18.746094 40.417969 19.359375 40.453125 19.972656 40.496094 C 20.375 40.523438 20.785156 40.546875 21.1875 40.597656 C 21.800781 40.671875 22.40625 40.757812 23.015625 40.851562 C 23.910156 40.996094 24.78125 41.21875 25.628906 41.542969 C 27.308594 42.1875 28.472656 43.285156 29.238281 44.9375 C 29.691406 45.917969 29.960938 46.953125 30.152344 48.011719 C 30.171875 48.113281 30.191406 48.253906 30.210938 48.429688 C 30.070312 48.449219 29.925781 48.46875 29.78125 48.488281 C 29.355469 48.542969 28.929688 48.585938 28.5 48.625 C 28.121094 48.660156 27.738281 48.679688 27.355469 48.699219 C 26.695312 48.734375 26.039062 48.769531 25.386719 48.792969 C 25.050781 48.808594 24.621094 48.816406 24.242188 48.824219 C 24.089844 48.828125 24.09375 48.832031 24.242188 48.839844 C 24.613281 48.855469 24.964844 48.875 25.328125 48.878906 C 25.671875 48.882812 26.011719 48.890625 26.351562 48.90625 C 26.964844 48.9375 27.574219 48.980469 28.1875 49.019531 C 28.59375 49.046875 29 49.074219 29.402344 49.121094 C 29.699219 49.160156 30 49.199219 30.292969 49.238281 C 30.441406 50.84375 30.597656 53.324219 30.621094 53.796875 C 30.65625 54.453125 30.746094 58.035156 30.757812 59.121094 C 30.765625 59.625 30.800781 59.445312 30.820312 58.921875 C 30.839844 58.34375 30.976562 53.855469 30.996094 53.5 C 31.015625 53.101562 31.15625 50.617188 31.234375 49.378906 C 32.125 49.519531 33.070312 49.828125 33.917969 50.148438 C 35.597656 50.792969 36.980469 51.917969 37.839844 53.90625 C 38.796875 55.707031 39.003906 61.101562 39.019531 61.363281 C 39.019531 61.105469 39.136719 54.503906 41.574219 51.96875 C 42.246094 51.273438 43.457031 50.441406 44.375 50.074219 C 45.277344 49.71875 46.121094 49.554688 47.027344 49.398438 C 47.171875 51.003906 47.324219 53.332031 47.347656 53.796875 C 47.382812 54.453125 47.472656 58.035156 47.484375 59.121094 C 47.492188 59.625 47.527344 59.445312 47.546875 58.921875 C 47.566406 58.34375 47.703125 53.855469 47.71875 53.5 C 47.742188 53.101562 47.878906 50.640625 47.960938 49.394531 C 48.828125 49.539062 49.742188 49.835938 50.558594 50.148438 C 52.242188 50.792969 53.621094 51.917969 54.484375 53.90625 C 55.449219 55.714844 55.699219 61.207031 55.710938 61.433594 C 55.710938 61.207031 55.773438 54.511719 58.21875 51.96875 C 58.890625 51.273438 60.101562 50.441406 61.019531 50.074219 C 61.792969 49.769531 62.527344 49.570312 63.292969 49.421875 C 63.4375 51.027344 63.582031 53.339844 63.605469 53.796875 C 63.640625 54.453125 63.730469 58.035156 63.742188 59.121094 C 63.75 59.625 63.785156 59.445312 63.804688 58.921875 C 63.824219 58.34375 63.960938 53.855469 63.980469 53.5 C 64 53.085938 64.152344 50.460938 64.226562 49.265625 C 64.34375 49.246094 64.464844 49.230469 64.585938 49.214844 C 65.15625 49.140625 65.734375 49.09375 66.304688 49.042969 C 66.855469 48.996094 67.402344 48.957031 67.953125 48.929688 C 68.476562 48.902344 69.003906 48.886719 69.53125 48.878906 C 69.867188 48.871094 70.214844 48.855469 70.550781 48.855469 C 71.644531 48.84375 71.65625 48.84375 70.566406 48.816406 C 70.519531 48.8125 68.546875 48.753906 67.621094 48.71875 C 67.351562 48.710938 67.074219 48.691406 66.804688 48.667969 C 66.398438 48.632812 65.996094 48.597656 65.589844 48.554688 C 65.226562 48.519531 64.859375 48.488281 64.496094 48.429688 C 64.429688 48.417969 64.367188 48.40625 64.300781 48.394531 C 64.324219 48.167969 64.347656 47.941406 64.390625 47.71875 C 64.527344 46.984375 64.71875 46.265625 64.984375 45.570312 C 65.324219 44.667969 65.890625 43.84375 66.5625 43.144531 C 67.253906 42.429688 68.089844 41.925781 69.007812 41.566406 C 70.199219 41.09375 71.449219 40.855469 72.714844 40.691406 C 73.285156 40.617188 73.859375 40.570312 74.433594 40.519531 C 74.980469 40.472656 75.53125 40.433594 76.078125 40.402344 C 76.605469 40.378906 77.128906 40.367188 77.65625 40.355469 C 77.992188 40.34375 78.34375 40.332031 78.679688 40.332031 C 79.769531 40.316406 79.78125 40.316406 78.691406 40.289062 Z M 56.296875 39.191406 C 56.433594 38.457031 56.625 37.738281 56.890625 37.042969 C 57.230469 36.140625 57.796875 35.316406 58.46875 34.617188 C 59.160156 33.902344 59.996094 33.402344 60.914062 33.039062 C 61.675781 32.738281 62.457031 32.53125 63.253906 32.378906 C 63.234375 32.535156 63.210938 32.683594 63.183594 32.835938 C 63.015625 33.75 62.761719 34.640625 62.382812 35.492188 C 61.769531 36.851562 60.828125 37.902344 59.507812 38.613281 C 58.476562 39.175781 57.363281 39.472656 56.226562 39.703125 C 56.242188 39.53125 56.265625 39.359375 56.296875 39.191406 Z M 55.074219 39.664062 C 54.960938 39.644531 54.851562 39.621094 54.738281 39.597656 C 53.953125 39.4375 53.1875 39.214844 52.453125 38.886719 C 51.238281 38.34375 50.238281 37.542969 49.523438 36.40625 C 49.011719 35.59375 48.679688 34.703125 48.441406 33.78125 C 48.339844 33.398438 48.207031 32.964844 48.140625 32.582031 C 48.125 32.488281 48.109375 32.394531 48.097656 32.300781 C 48.914062 32.449219 49.742188 32.71875 50.519531 33.015625 C 52.203125 33.660156 53.367188 34.761719 54.128906 36.410156 C 54.585938 37.390625 54.851562 38.425781 55.046875 39.484375 C 55.054688 39.53125 55.066406 39.597656 55.074219 39.664062 Z M 39.625 39.148438 C 39.761719 38.417969 39.945312 37.738281 40.210938 37.042969 C 40.554688 36.140625 41.121094 35.316406 41.792969 34.617188 C 42.484375 33.902344 43.316406 33.402344 44.234375 33.039062 C 45.132812 32.683594 46.058594 32.460938 47.003906 32.304688 C 46.980469 32.484375 46.953125 32.660156 46.921875 32.835938 C 46.757812 33.75 46.503906 34.640625 46.121094 35.488281 C 45.511719 36.851562 44.566406 37.902344 43.253906 38.613281 C 42.160156 39.207031 40.984375 39.414062 39.777344 39.652344 C 39.699219 39.667969 39.625 39.679688 39.546875 39.691406 C 39.566406 39.492188 39.589844 39.347656 39.625 39.148438 Z M 33.839844 33.015625 C 35.527344 33.660156 36.691406 34.761719 37.453125 36.410156 C 37.90625 37.390625 38.175781 38.425781 38.367188 39.484375 C 38.375 39.535156 38.382812 39.597656 38.394531 39.675781 C 38.265625 39.652344 38.140625 39.628906 38.011719 39.597656 C 37.226562 39.4375 36.460938 39.214844 35.726562 38.886719 C 34.511719 38.34375 33.511719 37.542969 32.792969 36.40625 C 32.28125 35.59375 31.953125 34.707031 31.714844 33.78125 C 31.613281 33.402344 31.5 33.023438 31.4375 32.640625 C 31.421875 32.542969 31.40625 32.449219 31.390625 32.355469 C 32.222656 32.496094 33.042969 32.710938 33.839844 33.015625 Z M 38.414062 41.363281 C 38.246094 42.273438 37.992188 43.164062 37.609375 44.015625 C 37 45.375 36.058594 46.425781 34.742188 47.140625 C 33.667969 47.71875 32.511719 48.015625 31.332031 48.25 C 31.347656 48.070312 31.371094 47.894531 31.40625 47.714844 C 31.542969 46.984375 31.730469 46.265625 31.996094 45.566406 C 32.339844 44.667969 32.902344 43.839844 33.578125 43.144531 C 34.269531 42.425781 35.101562 41.925781 36.023438 41.5625 C 36.820312 41.246094 37.648438 41.035156 38.484375 40.882812 C 38.464844 41.042969 38.441406 41.203125 38.414062 41.363281 Z M 39.648438 41.191406 C 39.628906 41.078125 39.613281 40.96875 39.597656 40.855469 C 39.644531 40.863281 39.691406 40.871094 39.738281 40.878906 C 40.632812 41.023438 41.507812 41.21875 42.351562 41.542969 C 44.035156 42.183594 45.199219 43.28125 45.964844 44.933594 C 46.417969 45.914062 46.6875 46.949219 46.878906 48.007812 C 46.890625 48.074219 46.902344 48.15625 46.917969 48.257812 C 46.683594 48.214844 46.457031 48.171875 46.226562 48.125 C 45.441406 47.960938 44.671875 47.738281 43.9375 47.410156 C 42.722656 46.863281 41.722656 46.066406 41.011719 44.929688 C 40.5 44.117188 40.167969 43.230469 39.925781 42.304688 C 39.828125 41.925781 39.714844 41.578125 39.648438 41.191406 Z M 55.054688 41.363281 C 54.890625 42.273438 54.636719 43.164062 54.253906 44.015625 C 53.644531 45.375 52.699219 46.425781 51.386719 47.140625 C 50.339844 47.707031 49.207031 48.003906 48.054688 48.234375 C 48.074219 48.058594 48.101562 47.886719 48.132812 47.714844 C 48.269531 46.984375 48.457031 46.265625 48.722656 45.566406 C 49.066406 44.667969 49.628906 43.839844 50.304688 43.144531 C 50.992188 42.425781 51.828125 41.925781 52.746094 41.5625 C 53.519531 41.253906 54.316406 41.050781 55.125 40.898438 C 55.109375 41.054688 55.082031 41.210938 55.054688 41.363281 Z M 56.25 40.894531 C 57.058594 41.039062 57.847656 41.25 58.613281 41.542969 C 60.292969 42.183594 61.457031 43.285156 62.222656 44.933594 C 62.675781 45.914062 62.945312 46.949219 63.136719 48.007812 C 63.148438 48.058594 63.15625 48.117188 63.164062 48.183594 C 63.066406 48.164062 62.964844 48.140625 62.871094 48.125 C 62.085938 47.960938 61.320312 47.738281 60.582031 47.410156 C 59.367188 46.863281 58.371094 46.066406 57.65625 44.929688 C 57.140625 44.117188 56.8125 43.230469 56.570312 42.304688 C 56.472656 41.925781 56.359375 41.546875 56.292969 41.160156 C 56.28125 41.070312 56.265625 40.984375 56.25 40.894531 "/>
<path style=" stroke:none;fill-rule:nonzero;fill:rgb(100%,100%,100%);fill-opacity:1;" d="M 47.539062 43.984375 C 47.539062 43.984375 47.828125 42.839844 48.945312 41.660156 C 50.109375 40.429688 51.074219 40.320312 51.074219 40.320312 C 51.074219 40.320312 49.777344 40.046875 48.765625 38.949219 C 47.667969 37.753906 47.539062 36.785156 47.539062 36.785156 C 47.539062 36.785156 47.410156 37.753906 46.3125 38.949219 C 45.300781 40.046875 44.003906 40.320312 44.003906 40.320312 C 44.003906 40.320312 44.96875 40.429688 46.132812 41.660156 C 47.25 42.839844 47.539062 43.984375 47.539062 43.984375 Z M 47.539062 43.984375 "/>
<path style=" stroke:none;fill-rule:nonzero;fill:rgb(100%,100%,100%);fill-opacity:1;" d="M 80.871094 50.234375 C 80.871094 48.617188 80.808594 45.933594 80.78125 45.480469 C 80.722656 44.824219 80.574219 44.570312 79.6875 44.570312 L 78.304688 44.570312 C 78.125 44.570312 78.097656 44.445312 78.097656 44.316406 L 78.097656 43.761719 C 78.097656 43.632812 78.125 43.585938 78.304688 43.585938 C 78.628906 43.585938 79.6875 43.660156 82.136719 43.660156 C 85 43.660156 86.238281 43.585938 86.503906 43.585938 C 86.738281 43.585938 86.765625 43.660156 86.765625 43.785156 L 86.765625 44.367188 C 86.765625 44.496094 86.707031 44.570312 86.472656 44.570312 L 84.703125 44.570312 C 83.789062 44.570312 83.671875 44.824219 83.671875 45.558594 C 83.671875 45.886719 83.582031 49.707031 83.582031 51.476562 L 83.582031 53.652344 C 83.582031 54.082031 83.582031 59.542969 83.671875 60.582031 C 84.320312 60.632812 90.160156 60.683594 91.074219 60.582031 C 92.8125 60.355469 94.582031 57.320312 94.996094 56.332031 C 95.054688 56.230469 95.113281 56.179688 95.230469 56.230469 L 95.703125 56.382812 C 95.792969 56.433594 95.792969 56.457031 95.761719 56.609375 C 95.675781 56.785156 94.496094 60.960938 94.316406 61.644531 C 93.933594 61.617188 91.632812 61.59375 89.007812 61.59375 C 86.382812 61.566406 83.492188 61.566406 81.902344 61.566406 C 80.75 61.566406 79.894531 61.59375 79.277344 61.59375 C 78.6875 61.617188 78.332031 61.644531 78.125 61.644531 C 77.917969 61.644531 77.890625 61.59375 77.890625 61.464844 L 77.890625 60.832031 C 77.890625 60.707031 77.917969 60.65625 78.097656 60.65625 L 79.511719 60.65625 C 80.605469 60.65625 80.78125 60.300781 80.78125 59.972656 C 80.78125 59.492188 80.871094 53.195312 80.871094 51.652344 Z M 80.871094 50.234375 "/>
<path style=" stroke:none;fill-rule:nonzero;fill:rgb(100%,100%,100%);fill-opacity:1;" d="M 125.988281 49.394531 C 125.953125 48.761719 125.652344 48.414062 124.714844 48.414062 L 124.382812 48.414062 C 124.28125 48.414062 124.246094 48.320312 124.246094 48.191406 L 124.246094 47.433594 C 124.246094 47.339844 124.3125 47.277344 124.449219 47.277344 C 124.617188 47.277344 126.691406 47.371094 127.292969 47.371094 C 127.695312 47.371094 130.605469 47.277344 131.042969 47.277344 C 133.050781 47.277344 134.554688 47.8125 135.394531 48.507812 C 136.128906 49.171875 136.566406 50.085938 136.566406 50.8125 C 136.566406 52.992188 135.257812 54.257812 132.613281 55.140625 L 132.613281 55.207031 C 133.386719 55.363281 134.054688 56.34375 135.425781 58.175781 C 135.894531 58.804688 136.664062 59.753906 137.300781 60.195312 C 137.769531 60.511719 138.203125 60.542969 138.808594 60.542969 C 138.941406 60.542969 138.976562 60.636719 138.976562 60.828125 L 138.976562 61.460938 C 138.976562 61.585938 138.90625 61.679688 138.773438 61.679688 C 138.707031 61.679688 138.4375 61.648438 138.105469 61.617188 C 137.804688 61.617188 137.402344 61.585938 137.066406 61.585938 C 136.296875 61.585938 135.492188 61.617188 134.925781 61.648438 C 134.289062 61.207031 132.816406 58.648438 132.515625 58.175781 C 131.308594 56.214844 130.808594 55.519531 129.402344 55.519531 C 129.066406 55.519531 128.765625 55.519531 128.53125 55.585938 L 128.53125 59.753906 C 128.597656 60.195312 128.800781 60.542969 129.46875 60.542969 L 130.339844 60.542969 C 130.472656 60.542969 130.539062 60.609375 130.539062 60.703125 L 130.539062 61.460938 C 130.539062 61.617188 130.472656 61.679688 130.273438 61.679688 C 130.039062 61.679688 128.230469 61.585938 127.125 61.585938 C 126.289062 61.585938 124.582031 61.679688 124.347656 61.679688 C 124.214844 61.679688 124.148438 61.585938 124.148438 61.429688 L 124.148438 60.703125 C 124.148438 60.609375 124.214844 60.542969 124.347656 60.542969 L 124.75 60.542969 C 125.550781 60.542969 125.953125 60.417969 125.953125 59.722656 C 125.988281 58.175781 125.953125 56.3125 125.988281 54.386719 Z M 128.53125 54.507812 C 128.765625 54.542969 129.101562 54.574219 129.535156 54.574219 C 133.25 54.574219 133.820312 52.109375 133.820312 51.289062 C 133.820312 50.339844 133.316406 49.488281 132.714844 49.109375 C 131.8125 48.570312 130.875 48.289062 129.535156 48.289062 C 129.035156 48.289062 128.53125 48.414062 128.53125 48.984375 Z M 128.53125 54.507812 "/>
<path style=" stroke:none;fill-rule:nonzero;fill:rgb(100%,100%,100%);fill-opacity:1;" d="M 145.457031 56.0625 L 144.113281 59.457031 C 143.910156 60.089844 144.011719 60.5 144.71875 60.5 L 145.554688 60.5 C 145.757812 60.5 145.789062 60.597656 145.789062 60.722656 L 145.789062 61.421875 C 145.789062 61.546875 145.757812 61.644531 145.589844 61.644531 C 145.320312 61.644531 143.542969 61.546875 143.003906 61.546875 C 142.367188 61.546875 140.6875 61.644531 140.386719 61.644531 C 140.253906 61.644531 140.253906 61.484375 140.253906 61.355469 L 140.253906 60.691406 C 140.253906 60.566406 140.253906 60.5 140.386719 60.5 L 140.855469 60.5 C 141.425781 60.5 141.964844 60.183594 142.234375 59.835938 C 142.46875 59.582031 144.179688 55.777344 144.984375 54.195312 C 145.21875 53.75 147.199219 49.441406 147.402344 48.902344 C 147.46875 48.710938 147.671875 48.363281 147.433594 48.269531 C 147.367188 48.203125 147.265625 48.046875 147.300781 47.949219 C 147.265625 47.886719 147.335938 47.792969 147.636719 47.730469 C 148.273438 47.632812 149.214844 47.0625 149.515625 46.808594 C 149.582031 46.683594 149.71875 46.585938 149.917969 46.585938 C 150.121094 46.585938 150.1875 46.714844 150.253906 46.9375 C 150.722656 48.203125 152.4375 52.734375 152.871094 54.003906 C 153.375 55.589844 154.820312 59.328125 155.054688 59.644531 C 155.492188 60.214844 156.0625 60.5 156.632812 60.5 L 157.269531 60.5 C 157.40625 60.5 157.4375 60.597656 157.4375 60.691406 L 157.4375 61.355469 C 157.4375 61.453125 157.40625 61.644531 157.203125 61.644531 C 156.800781 61.644531 155.023438 61.546875 154.25 61.546875 C 153.613281 61.546875 151.632812 61.644531 151.195312 61.644531 C 150.960938 61.644531 150.925781 61.484375 150.925781 61.355469 L 150.925781 60.691406 C 150.925781 60.597656 150.960938 60.5 151.09375 60.5 L 151.632812 60.5 C 152.035156 60.5 152.167969 60.214844 152.167969 59.960938 C 152.035156 59.328125 151.128906 56.792969 150.859375 56.066406 L 145.457031 56.066406 Z M 150.523438 55.050781 L 148.746094 49.597656 C 148.679688 49.410156 148.644531 49.28125 148.542969 49.28125 C 148.441406 49.28125 148.375 49.375 148.273438 49.628906 C 148.175781 49.882812 146.125 54.734375 145.957031 55.050781 Z M 150.523438 55.050781 "/>
<path style=" stroke:none;fill-rule:nonzero;fill:rgb(100%,100%,100%);fill-opacity:1;" d="M 161.320312 49.386719 C 161.285156 48.757812 160.980469 48.410156 160.027344 48.410156 L 159.6875 48.410156 C 159.585938 48.410156 159.554688 48.316406 159.554688 48.191406 L 159.554688 47.433594 C 159.554688 47.339844 159.621094 47.277344 159.757812 47.277344 C 159.925781 47.277344 162.03125 47.371094 162.640625 47.371094 C 163.050781 47.371094 166.003906 47.277344 166.441406 47.277344 C 168.480469 47.277344 170.007812 47.8125 170.855469 48.503906 C 171.601562 49.167969 172.042969 50.082031 172.042969 50.804688 C 172.042969 52.976562 170.71875 54.238281 168.039062 55.121094 L 168.039062 55.183594 C 168.820312 55.339844 169.496094 56.316406 170.890625 58.144531 C 171.363281 58.773438 172.144531 59.71875 172.789062 60.160156 C 173.265625 60.476562 173.707031 60.507812 174.316406 60.507812 C 174.453125 60.507812 174.484375 60.601562 174.484375 60.789062 L 174.484375 61.421875 C 174.484375 61.546875 174.417969 61.640625 174.28125 61.640625 C 174.214844 61.640625 173.941406 61.609375 173.601562 61.578125 C 173.296875 61.578125 172.890625 61.546875 172.550781 61.546875 C 171.769531 61.546875 170.957031 61.578125 170.378906 61.609375 C 169.734375 61.167969 168.242188 58.617188 167.933594 58.144531 C 166.714844 56.191406 166.203125 55.496094 164.777344 55.496094 C 164.4375 55.496094 164.132812 55.496094 163.898438 55.558594 L 163.898438 59.71875 C 163.964844 60.160156 164.167969 60.507812 164.847656 60.507812 L 165.730469 60.507812 C 165.863281 60.507812 165.933594 60.570312 165.933594 60.664062 L 165.933594 61.421875 C 165.933594 61.578125 165.863281 61.640625 165.660156 61.640625 C 165.425781 61.640625 163.589844 61.546875 162.472656 61.546875 C 161.621094 61.546875 159.890625 61.640625 159.652344 61.640625 C 159.519531 61.640625 159.449219 61.546875 159.449219 61.390625 L 159.449219 60.664062 C 159.449219 60.570312 159.519531 60.507812 159.652344 60.507812 L 160.0625 60.507812 C 160.875 60.507812 161.285156 60.378906 161.285156 59.6875 C 161.316406 58.144531 161.285156 56.285156 161.316406 54.363281 L 161.316406 49.386719 Z M 163.898438 54.492188 C 164.136719 54.523438 164.476562 54.554688 164.917969 54.554688 C 168.683594 54.554688 169.261719 52.097656 169.261719 51.277344 C 169.261719 50.332031 168.753906 49.480469 168.140625 49.101562 C 167.226562 48.566406 166.273438 48.285156 164.917969 48.285156 C 164.410156 48.285156 163.898438 48.410156 163.898438 48.976562 Z M 163.898438 54.492188 "/>
<path style=" stroke:none;fill-rule:nonzero;fill:rgb(100%,100%,100%);fill-opacity:1;" d="M 183.355469 57.6875 C 183.386719 58.46875 183.355469 59.308594 183.421875 59.683594 C 183.488281 60.339844 184.007812 60.371094 184.597656 60.371094 L 185.023438 60.371094 C 185.183594 60.371094 185.25 60.433594 185.25 60.527344 L 185.25 61.273438 C 185.25 61.398438 185.183594 61.492188 184.988281 61.492188 C 184.792969 61.492188 182.964844 61.398438 181.886719 61.398438 C 181.167969 61.398438 179.273438 61.492188 179.078125 61.492188 C 178.914062 61.492188 178.851562 61.429688 178.851562 61.242188 L 178.851562 60.558594 C 178.851562 60.464844 178.914062 60.371094 179.046875 60.371094 L 179.535156 60.371094 C 180.582031 60.371094 180.777344 60.183594 180.808594 59.746094 C 180.839844 59.464844 180.839844 58.34375 180.839844 56.503906 L 180.839844 55.382812 C 180.546875 54.820312 176.5625 49.238281 176.042969 48.773438 C 175.714844 48.460938 175.125 48.398438 174.867188 48.398438 L 174.410156 48.398438 C 174.246094 48.398438 174.179688 48.335938 174.179688 48.148438 L 174.179688 47.460938 C 174.179688 47.367188 174.246094 47.277344 174.441406 47.277344 C 174.636719 47.277344 176.335938 47.371094 177.117188 47.371094 C 177.835938 47.371094 180.058594 47.277344 180.285156 47.277344 C 180.417969 47.277344 180.515625 47.339844 180.515625 47.492188 L 180.515625 48.179688 C 180.515625 48.304688 180.484375 48.398438 180.285156 48.398438 L 179.796875 48.398438 C 179.207031 48.398438 179.175781 48.742188 179.304688 48.925781 C 179.503906 49.207031 182.210938 53.355469 182.734375 54.101562 C 183.226562 53.324219 185.933594 49.550781 186.066406 49.300781 C 186.328125 48.804688 186.359375 48.398438 185.640625 48.398438 L 185.117188 48.398438 C 184.957031 48.398438 184.890625 48.304688 184.890625 48.179688 L 184.890625 47.492188 C 184.890625 47.367188 184.957031 47.277344 185.117188 47.277344 C 185.3125 47.277344 186.949219 47.371094 187.925781 47.371094 C 188.515625 47.371094 189.65625 47.277344 189.855469 47.277344 C 190.015625 47.277344 190.082031 47.339844 190.082031 47.527344 L 190.082031 48.179688 C 190.082031 48.335938 190.015625 48.398438 189.886719 48.398438 L 189.558594 48.398438 C 189.039062 48.398438 188.679688 48.492188 188.382812 48.648438 C 187.894531 48.898438 184.105469 53.980469 183.355469 55.070312 Z M 183.355469 57.6875 "/>
<path style=" stroke:none;fill-rule:nonzero;fill:rgb(100%,100%,100%);fill-opacity:1;" d="M 97.679688 47.3125 C 97.679688 47.3125 100.394531 47.527344 104.824219 47.3125 L 104.824219 48.171875 C 104.824219 48.171875 103.214844 48.050781 102.957031 48.464844 C 102.695312 48.878906 102.769531 49.261719 102.769531 49.277344 C 102.769531 49.289062 102.742188 58.96875 102.742188 58.96875 C 102.742188 58.96875 102.695312 60.242188 103.585938 60.515625 C 104.242188 60.6875 104.980469 60.625 104.980469 60.625 L 104.980469 61.492188 C 104.980469 61.492188 102.21875 61.394531 101.335938 61.402344 C 100.457031 61.40625 97.894531 61.492188 97.894531 61.492188 C 97.894531 61.492188 97.800781 61.550781 97.808594 61.167969 C 97.820312 60.789062 97.820312 60.671875 97.820312 60.671875 C 97.820312 60.671875 97.820312 60.632812 97.933594 60.640625 C 98.042969 60.644531 99.214844 60.652344 99.578125 60.578125 C 99.945312 60.503906 100.125 60.414062 100.265625 60.03125 L 100.308594 59.136719 L 100.335938 56.953125 L 100.347656 54.554688 L 100.339844 52.605469 L 100.3125 50.8125 L 100.277344 49.160156 C 100.277344 49.160156 100.425781 48.496094 99.691406 48.308594 C 98.953125 48.125 97.679688 48.15625 97.679688 48.15625 Z M 97.679688 47.3125 "/>
<path style=" stroke:none;fill-rule:nonzero;fill:rgb(100%,100%,100%);fill-opacity:1;" d="M 110.144531 60.445312 C 110.632812 60.160156 110.664062 59.460938 110.664062 59.460938 L 110.722656 58.222656 L 110.738281 56.859375 L 110.738281 55.402344 L 110.726562 53.367188 L 110.707031 51.492188 C 110.707031 51.492188 110.683594 49.539062 110.550781 48.9375 C 110.421875 48.332031 109.84375 48.195312 109.609375 48.164062 C 109.378906 48.132812 108.402344 48.136719 108.402344 48.136719 L 108.429688 47.273438 L 108.582031 47.273438 C 108.582031 47.273438 110.367188 47.332031 111.066406 47.363281 C 111.765625 47.394531 112.664062 47.351562 112.664062 47.351562 C 112.664062 47.351562 114.066406 47.273438 114.824219 47.273438 C 115.578125 47.273438 117.078125 47.375 117.5625 47.453125 C 118.050781 47.535156 119.019531 47.691406 119.78125 48.46875 C 120.542969 49.25 120.644531 50.183594 120.460938 51.285156 C 120.273438 52.386719 119.140625 52.882812 119.140625 52.882812 L 117.203125 53.761719 C 117.203125 53.761719 118.230469 54.015625 119.808594 54.863281 C 121.386719 55.710938 121.496094 57.371094 121.496094 57.371094 C 121.496094 57.371094 121.644531 58.601562 120.984375 59.636719 C 120.320312 60.675781 119.769531 60.800781 118.851562 61.085938 C 117.929688 61.371094 115.59375 61.484375 115.15625 61.496094 C 114.71875 61.503906 111.382812 61.390625 111.382812 61.390625 L 108.515625 61.46875 L 108.515625 60.632812 C 108.515625 60.632812 109.65625 60.730469 110.144531 60.445312 Z M 114.675781 53.535156 C 114.675781 53.535156 115.917969 53.554688 116.976562 52.890625 C 118.035156 52.222656 118.113281 50.9375 118.113281 50.9375 C 118.113281 50.9375 118.226562 49.15625 116.746094 48.488281 C 115.261719 47.8125 114.199219 47.925781 113.621094 47.945312 C 113.046875 47.96875 113.035156 48.578125 113.035156 48.578125 L 113.007812 53.492188 Z M 113.007812 54.207031 L 113.011719 58.371094 C 113.011719 58.371094 113.050781 59.757812 113.558594 60.175781 C 114.066406 60.59375 114.480469 60.902344 115.792969 60.800781 C 117.105469 60.699219 117.804688 60.058594 118.066406 59.789062 C 118.332031 59.519531 118.910156 58.746094 118.835938 57.640625 C 118.761719 56.535156 118.542969 56.160156 118.09375 55.578125 C 117.644531 54.996094 116.855469 54.582031 115.738281 54.382812 C 114.625 54.183594 113.007812 54.207031 113.007812 54.207031 Z M 113.007812 54.207031 "/>
</g>
</svg>
